<svg width="64" height="64" viewBox="0 0 64 64" fill="none" xmlns="http://www.w3.org/2000/svg">
      <defs>
        <linearGradient id="appleGradient" x1="0%" y1="0%" x2="100%" y2="100%">
          <stop offset="0%" style="stop-color:#EF4444;stop-opacity:1" />
          <stop offset="100%" style="stop-color:#DC2626;stop-opacity:1" />
        </linearGradient>
      </defs>
      <path d="M32 8 C28 8 24 12 24 16 C24 20 28 24 32 24 C36 24 40 20 40 16 C40 12 36 8 32 8 Z M32 24 C32 32 36 40 40 48 C40 52 36 56 32 56 C28 56 24 52 24 48 C28 40 32 32 32 24 Z" fill="url(#appleGradient)"/>
      <path d="M30 8 L32 4 L34 8" stroke="#059669" stroke-width="2" stroke-linecap="round"/>
    </svg>