<svg width="96" height="96" viewBox="0 0 96 96" fill="none" xmlns="http://www.w3.org/2000/svg">
      <defs>
        <filter id="explosionGlow">
          <feGaussianBlur stdDeviation="3" result="coloredBlur"/>
          <feMerge> 
            <feMergeNode in="coloredBlur"/>
            <feMergeNode in="SourceGraphic"/>
          </feMerge>
        </filter>
      </defs>
      <path d="M48 8 L56 24 L72 16 L64 32 L80 24 L72 40 L88 32 L80 48 L88 56 L72 48 L80 64 L72 56 L64 72 L56 64 L48 80 L40 64 L32 72 L24 64 L32 48 L16 56 L24 48 L16 40 L24 32 L16 24 L32 16 L24 24 L32 8 Z" fill="#F59E0B" filter="url(#explosionGlow)"/>
      <path d="M48 8 L56 24 L72 16 L64 32 L80 24 L72 40 L88 32 L80 48 L88 56 L72 48 L80 64 L72 56 L64 72 L56 64 L48 80 L40 64 L32 72 L24 64 L32 48 L16 56 L24 48 L16 40 L24 32 L16 24 L32 16 L24 24 L32 8 Z" fill="#EF4444" opacity="0.7"/>
    </svg>